<svg width="81" height="81" viewBox="0 0 81 81" fill="none" xmlns="http://www.w3.org/2000/svg">
<path d="M54.3169 67.2084H3.25201C2.96529 67.2084 2.69031 67.0945 2.48757 66.8918C2.28483 66.6891 2.17093 66.4141 2.17093 66.1274V65.4203C2.16063 58.1245 4.58465 51.0337 9.0591 45.2709C13.5336 39.5082 19.8027 35.4029 26.8736 33.6052L27.4055 35.7003C20.8623 37.3636 15.0524 41.143 10.8796 46.4503C6.70688 51.7577 4.40533 58.2954 4.33309 65.0463H54.3169V67.2084Z" fill="#048D64" stroke="#048D64"/>
<path d="M63.6142 54.3674C61.8457 49.8098 59.0165 45.7393 55.3611 42.4932C51.7057 39.2471 47.3294 36.9189 42.5947 35.7014L43.1266 33.6063C48.1955 34.9088 52.8809 37.4007 56.7945 40.8755C60.708 44.3503 63.7371 48.7078 65.6304 53.5868L63.6142 54.3674Z" fill="#048D64" stroke="#048D64"/>
<path d="M35.0023 37.7414C31.5498 37.7414 28.1749 36.7176 25.3044 34.7995C22.4338 32.8813 20.1966 30.155 18.8755 26.9653C17.5545 23.7756 17.209 20.2658 17.8828 16.8798C18.5565 13.4937 20.2193 10.3835 22.6608 7.9425C25.1022 5.50148 28.2127 3.8393 31.5989 3.16615C34.9851 2.49301 38.4948 2.83914 41.6843 4.16078C44.8737 5.48241 47.5996 7.72019 49.5173 10.5911C51.4349 13.462 52.458 16.8371 52.4574 20.2895C52.4514 24.9168 50.6103 29.3527 47.3381 32.6244C44.0658 35.896 39.6295 37.7363 35.0023 37.7414ZM35.0023 4.99332C31.9777 4.99332 29.0211 5.89015 26.5063 7.57042C23.9914 9.25069 22.0313 11.6389 20.8737 14.4332C19.7161 17.2274 19.4131 20.3021 20.0029 23.2686C20.5927 26.2351 22.0489 28.96 24.1874 31.0989C26.3258 33.2378 29.0504 34.6946 32.0168 35.285C34.9831 35.8755 38.0579 35.5731 40.8524 34.4161C43.6469 33.2591 46.0355 31.2995 47.7163 28.785C49.3971 26.2705 50.2946 23.3141 50.2952 20.2895C50.2915 16.2344 48.6792 12.3464 45.8121 9.47873C42.945 6.61103 39.0574 4.9979 35.0023 4.99332Z" fill="#048D64" stroke="#048D64"/>
<path d="M65.4986 77.5317C63.059 77.5296 60.6748 76.8042 58.6473 75.4472C56.6199 74.0903 55.0403 72.1627 54.1081 69.9082C53.176 67.6536 52.9332 65.1734 53.4105 62.7809C53.8878 60.3884 55.0636 58.1911 56.7895 56.4668C58.5153 54.7425 60.7136 53.5685 63.1065 53.0934C65.4994 52.6182 67.9795 52.8631 70.2332 53.7972C72.4869 54.7313 74.4131 56.3127 75.7683 58.3413C77.1234 60.3699 77.8467 62.7548 77.8467 65.1944C77.843 68.4672 76.5405 71.6047 74.2253 73.9179C71.9101 76.2311 68.7714 77.5308 65.4986 77.5317ZM65.4986 55.0192C63.4866 55.0214 61.5204 55.62 59.8486 56.7393C58.1767 57.8587 56.8742 59.4486 56.1057 61.308C55.3372 63.1675 55.1373 65.213 55.5311 67.1861C55.9249 69.1591 56.8949 70.9712 58.3183 72.3931C59.7418 73.815 61.5548 74.7831 63.5283 75.1748C65.5018 75.5665 67.5471 75.3644 69.4058 74.594C71.2644 73.8235 72.8529 72.5193 73.9705 70.8463C75.0881 69.1732 75.6846 67.2064 75.6846 65.1944C75.6814 62.495 74.6069 59.9072 72.697 57.9995C70.7871 56.0919 68.198 55.0203 65.4986 55.0203V55.0192Z" fill="#048D64" stroke="#048D64"/>
<path d="M64.4229 59.7749H66.585V70.6139H64.4229V59.7749Z" fill="#048D64" stroke="#048D64"/>
<path d="M60.0845 64.1133H70.9234V66.2755H60.0845V64.1133Z" fill="#048D64" stroke="#048D64"/>
</svg>
