<svg width="928" height="534" viewBox="0 0 928 534" fill="none" xmlns="http://www.w3.org/2000/svg">
<g opacity="0.4">
<path opacity="0.4" d="M800.3 464.682C803.013 464.682 805.212 462.514 805.212 459.841C805.212 457.167 803.013 455 800.3 455C797.588 455 795.389 457.167 795.389 459.841C795.389 462.514 797.588 464.682 800.3 464.682Z" fill="#048D64"/>
<path opacity="0.4" d="M820.766 464.682C823.478 464.682 825.677 462.514 825.677 459.841C825.677 457.167 823.478 455 820.766 455C818.053 455 815.854 457.167 815.854 459.841C815.854 462.514 818.053 464.682 820.766 464.682Z" fill="#048D64"/>
<path opacity="0.4" d="M841.23 464.682C843.943 464.682 846.142 462.514 846.142 459.841C846.142 457.167 843.943 455 841.23 455C838.518 455 836.319 457.167 836.319 459.841C836.319 462.514 838.518 464.682 841.23 464.682Z" fill="#048D64"/>
<path opacity="0.4" d="M861.694 464.682C864.406 464.682 866.605 462.514 866.605 459.841C866.605 457.167 864.406 455 861.694 455C858.981 455 856.782 457.167 856.782 459.841C856.782 462.514 858.981 464.682 861.694 464.682Z" fill="#048D64"/>
<path opacity="0.4" d="M882.159 464.682C884.871 464.682 887.07 462.514 887.07 459.841C887.07 457.167 884.871 455 882.159 455C879.446 455 877.247 457.167 877.247 459.841C877.247 462.514 879.446 464.682 882.159 464.682Z" fill="#048D64"/>
<path opacity="0.4" d="M902.624 464.682C905.336 464.682 907.535 462.514 907.535 459.841C907.535 457.167 905.336 455 902.624 455C899.911 455 897.712 457.167 897.712 459.841C897.712 462.514 899.911 464.682 902.624 464.682Z" fill="#048D64"/>
<path opacity="0.4" d="M923.088 464.682C925.801 464.682 928 462.514 928 459.841C928 457.167 925.801 455 923.088 455C920.376 455 918.177 457.167 918.177 459.841C918.177 462.514 920.376 464.682 923.088 464.682Z" fill="#048D64"/>
<path opacity="0.4" d="M800.3 480.011C803.013 480.011 805.212 477.844 805.212 475.17C805.212 472.497 803.013 470.33 800.3 470.33C797.588 470.33 795.389 472.497 795.389 475.17C795.389 477.844 797.588 480.011 800.3 480.011Z" fill="#048D64"/>
<path opacity="0.4" d="M820.766 480.011C823.478 480.011 825.677 477.844 825.677 475.17C825.677 472.497 823.478 470.33 820.766 470.33C818.053 470.33 815.854 472.497 815.854 475.17C815.854 477.844 818.053 480.011 820.766 480.011Z" fill="#048D64"/>
<path opacity="0.4" d="M841.23 480.011C843.943 480.011 846.142 477.844 846.142 475.17C846.142 472.497 843.943 470.33 841.23 470.33C838.518 470.33 836.319 472.497 836.319 475.17C836.319 477.844 838.518 480.011 841.23 480.011Z" fill="#048D64"/>
<path opacity="0.4" d="M861.694 480.011C864.406 480.011 866.605 477.844 866.605 475.17C866.605 472.497 864.406 470.33 861.694 470.33C858.981 470.33 856.782 472.497 856.782 475.17C856.782 477.844 858.981 480.011 861.694 480.011Z" fill="#048D64"/>
<path opacity="0.4" d="M882.159 480.011C884.871 480.011 887.07 477.844 887.07 475.17C887.07 472.497 884.871 470.33 882.159 470.33C879.446 470.33 877.247 472.497 877.247 475.17C877.247 477.844 879.446 480.011 882.159 480.011Z" fill="#048D64"/>
<path opacity="0.4" d="M902.624 480.011C905.336 480.011 907.535 477.844 907.535 475.17C907.535 472.497 905.336 470.33 902.624 470.33C899.911 470.33 897.712 472.497 897.712 475.17C897.712 477.844 899.911 480.011 902.624 480.011Z" fill="#048D64"/>
<path opacity="0.4" d="M923.088 480.011C925.801 480.011 928 477.844 928 475.17C928 472.497 925.801 470.33 923.088 470.33C920.376 470.33 918.177 472.497 918.177 475.17C918.177 477.844 920.376 480.011 923.088 480.011Z" fill="#048D64"/>
<path opacity="0.4" d="M800.3 495.341C803.013 495.341 805.212 493.174 805.212 490.5C805.212 487.826 803.013 485.659 800.3 485.659C797.588 485.659 795.389 487.826 795.389 490.5C795.389 493.174 797.588 495.341 800.3 495.341Z" fill="#048D64"/>
<path opacity="0.4" d="M820.766 495.341C823.478 495.341 825.677 493.174 825.677 490.5C825.677 487.826 823.478 485.659 820.766 485.659C818.053 485.659 815.854 487.826 815.854 490.5C815.854 493.174 818.053 495.341 820.766 495.341Z" fill="#048D64"/>
<path opacity="0.4" d="M841.23 495.341C843.943 495.341 846.142 493.174 846.142 490.5C846.142 487.826 843.943 485.659 841.23 485.659C838.518 485.659 836.319 487.826 836.319 490.5C836.319 493.174 838.518 495.341 841.23 495.341Z" fill="#048D64"/>
<path opacity="0.4" d="M861.694 495.341C864.406 495.341 866.605 493.174 866.605 490.5C866.605 487.826 864.406 485.659 861.694 485.659C858.981 485.659 856.782 487.826 856.782 490.5C856.782 493.174 858.981 495.341 861.694 495.341Z" fill="#048D64"/>
<path opacity="0.4" d="M882.159 495.341C884.871 495.341 887.07 493.174 887.07 490.5C887.07 487.826 884.871 485.659 882.159 485.659C879.446 485.659 877.247 487.826 877.247 490.5C877.247 493.174 879.446 495.341 882.159 495.341Z" fill="#048D64"/>
<path opacity="0.4" d="M902.624 495.341C905.336 495.341 907.535 493.174 907.535 490.5C907.535 487.826 905.336 485.659 902.624 485.659C899.911 485.659 897.712 487.826 897.712 490.5C897.712 493.174 899.911 495.341 902.624 495.341Z" fill="#048D64"/>
<path opacity="0.4" d="M923.088 495.341C925.801 495.341 928 493.174 928 490.5C928 487.826 925.801 485.659 923.088 485.659C920.376 485.659 918.177 487.826 918.177 490.5C918.177 493.174 920.376 495.341 923.088 495.341Z" fill="#048D64"/>
<path opacity="0.4" d="M800.3 510.67C803.013 510.67 805.212 508.503 805.212 505.83C805.212 503.156 803.013 500.989 800.3 500.989C797.588 500.989 795.389 503.156 795.389 505.83C795.389 508.503 797.588 510.67 800.3 510.67Z" fill="#048D64"/>
<path opacity="0.4" d="M820.766 510.67C823.478 510.67 825.677 508.503 825.677 505.83C825.677 503.156 823.478 500.989 820.766 500.989C818.053 500.989 815.854 503.156 815.854 505.83C815.854 508.503 818.053 510.67 820.766 510.67Z" fill="#048D64"/>
<path opacity="0.4" d="M800.3 526C803.013 526 805.212 523.833 805.212 521.159C805.212 518.486 803.013 516.318 800.3 516.318C797.588 516.318 795.389 518.486 795.389 521.159C795.389 523.833 797.588 526 800.3 526Z" fill="#048D64"/>
<path opacity="0.4" d="M820.766 526C823.478 526 825.677 523.833 825.677 521.159C825.677 518.486 823.478 516.318 820.766 516.318C818.053 516.318 815.854 518.486 815.854 521.159C815.854 523.833 818.053 526 820.766 526Z" fill="#048D64"/>
<path opacity="0.4" d="M841.23 526C843.943 526 846.142 523.833 846.142 521.159C846.142 518.486 843.943 516.318 841.23 516.318C838.518 516.318 836.319 518.486 836.319 521.159C836.319 523.833 838.518 526 841.23 526Z" fill="#048D64"/>
<path opacity="0.4" d="M841.23 510.67C843.943 510.67 846.142 508.503 846.142 505.83C846.142 503.156 843.943 500.989 841.23 500.989C838.518 500.989 836.319 503.156 836.319 505.83C836.319 508.503 838.518 510.67 841.23 510.67Z" fill="#048D64"/>
<path opacity="0.4" d="M861.694 510.67C864.406 510.67 866.605 508.503 866.605 505.83C866.605 503.156 864.406 500.989 861.694 500.989C858.981 500.989 856.782 503.156 856.782 505.83C856.782 508.503 858.981 510.67 861.694 510.67Z" fill="#048D64"/>
<path opacity="0.4" d="M882.159 510.67C884.871 510.67 887.07 508.503 887.07 505.83C887.07 503.156 884.871 500.989 882.159 500.989C879.446 500.989 877.247 503.156 877.247 505.83C877.247 508.503 879.446 510.67 882.159 510.67Z" fill="#048D64"/>
<path opacity="0.4" d="M902.624 510.67C905.336 510.67 907.535 508.503 907.535 505.83C907.535 503.156 905.336 500.989 902.624 500.989C899.911 500.989 897.712 503.156 897.712 505.83C897.712 508.503 899.911 510.67 902.624 510.67Z" fill="#048D64"/>
<path opacity="0.4" d="M923.088 510.67C925.801 510.67 928 508.503 928 505.83C928 503.156 925.801 500.989 923.088 500.989C920.376 500.989 918.177 503.156 918.177 505.83C918.177 508.503 920.376 510.67 923.088 510.67Z" fill="#048D64"/>
</g>
<g opacity="0.4">
<path opacity="0.4" d="M5.09717 115C7.91226 115 10.1943 113.093 10.1943 110.741C10.1943 108.388 7.91226 106.481 5.09717 106.481C2.28208 106.481 0 108.388 0 110.741C0 113.093 2.28208 115 5.09717 115Z" fill="#048D64"/>
<path opacity="0.4" d="M5.09717 97.2531C7.91226 97.2531 10.1943 95.3462 10.1943 92.9939C10.1943 90.6415 7.91226 88.7346 5.09717 88.7346C2.28208 88.7346 0 90.6415 0 92.9939C0 95.3462 2.28208 97.2531 5.09717 97.2531Z" fill="#048D64"/>
<path opacity="0.4" d="M5.09717 79.5062C7.91226 79.5062 10.1943 77.5992 10.1943 75.2469C10.1943 72.8946 7.91226 70.9877 5.09717 70.9877C2.28208 70.9877 0 72.8946 0 75.2469C0 77.5992 2.28208 79.5062 5.09717 79.5062Z" fill="#048D64"/>
<path opacity="0.4" d="M5.09717 61.7593C7.91226 61.7593 10.1943 59.8523 10.1943 57.5C10.1943 55.1477 7.91226 53.2408 5.09717 53.2408C2.28208 53.2408 0 55.1477 0 57.5C0 59.8523 2.28208 61.7593 5.09717 61.7593Z" fill="#048D64"/>
<path opacity="0.4" d="M5.09717 44.0123C7.91226 44.0123 10.1943 42.1054 10.1943 39.7531C10.1943 37.4008 7.91226 35.4938 5.09717 35.4938C2.28208 35.4938 0 37.4008 0 39.7531C0 42.1054 2.28208 44.0123 5.09717 44.0123Z" fill="#048D64"/>
<path opacity="0.4" d="M5.09717 26.2654C7.91226 26.2654 10.1943 24.3585 10.1943 22.0062C10.1943 19.6538 7.91226 17.7469 5.09717 17.7469C2.28208 17.7469 0 19.6538 0 22.0062C0 24.3585 2.28208 26.2654 5.09717 26.2654Z" fill="#048D64"/>
<path opacity="0.4" d="M5.09717 8.51852C7.91226 8.51852 10.1943 6.61158 10.1943 4.25926C10.1943 1.90694 7.91226 0 5.09717 0C2.28208 0 0 1.90694 0 4.25926C0 6.61158 2.28208 8.51852 5.09717 8.51852Z" fill="#048D64"/>
<path opacity="0.4" d="M21.2383 115C24.0534 115 26.3355 113.093 26.3355 110.741C26.3355 108.388 24.0534 106.481 21.2383 106.481C18.4232 106.481 16.1411 108.388 16.1411 110.741C16.1411 113.093 18.4232 115 21.2383 115Z" fill="#048D64"/>
<path opacity="0.4" d="M21.2383 97.2531C24.0534 97.2531 26.3355 95.3462 26.3355 92.9939C26.3355 90.6415 24.0534 88.7346 21.2383 88.7346C18.4232 88.7346 16.1411 90.6415 16.1411 92.9939C16.1411 95.3462 18.4232 97.2531 21.2383 97.2531Z" fill="#048D64"/>
<path opacity="0.4" d="M21.2383 79.5062C24.0534 79.5062 26.3355 77.5992 26.3355 75.2469C26.3355 72.8946 24.0534 70.9877 21.2383 70.9877C18.4232 70.9877 16.1411 72.8946 16.1411 75.2469C16.1411 77.5992 18.4232 79.5062 21.2383 79.5062Z" fill="#048D64"/>
<path opacity="0.4" d="M21.2383 61.7593C24.0534 61.7593 26.3355 59.8523 26.3355 57.5C26.3355 55.1477 24.0534 53.2408 21.2383 53.2408C18.4232 53.2408 16.1411 55.1477 16.1411 57.5C16.1411 59.8523 18.4232 61.7593 21.2383 61.7593Z" fill="#048D64"/>
<path opacity="0.4" d="M21.2383 44.0123C24.0534 44.0123 26.3355 42.1054 26.3355 39.7531C26.3355 37.4008 24.0534 35.4938 21.2383 35.4938C18.4232 35.4938 16.1411 37.4008 16.1411 39.7531C16.1411 42.1054 18.4232 44.0123 21.2383 44.0123Z" fill="#048D64"/>
<path opacity="0.4" d="M21.2383 26.2654C24.0534 26.2654 26.3355 24.3585 26.3355 22.0062C26.3355 19.6538 24.0534 17.7469 21.2383 17.7469C18.4232 17.7469 16.1411 19.6538 16.1411 22.0062C16.1411 24.3585 18.4232 26.2654 21.2383 26.2654Z" fill="#048D64"/>
<path opacity="0.4" d="M21.2383 8.51852C24.0534 8.51852 26.3355 6.61158 26.3355 4.25926C26.3355 1.90694 24.0534 0 21.2383 0C18.4232 0 16.1411 1.90694 16.1411 4.25926C16.1411 6.61158 18.4232 8.51852 21.2383 8.51852Z" fill="#048D64"/>
<path opacity="0.4" d="M37.3792 115C40.1943 115 42.4764 113.093 42.4764 110.741C42.4764 108.388 40.1943 106.481 37.3792 106.481C34.5641 106.481 32.282 108.388 32.282 110.741C32.282 113.093 34.5641 115 37.3792 115Z" fill="#048D64"/>
<path opacity="0.4" d="M37.3792 97.2531C40.1943 97.2531 42.4764 95.3462 42.4764 92.9939C42.4764 90.6415 40.1943 88.7346 37.3792 88.7346C34.5641 88.7346 32.282 90.6415 32.282 92.9939C32.282 95.3462 34.5641 97.2531 37.3792 97.2531Z" fill="#048D64"/>
<path opacity="0.4" d="M37.3792 79.5062C40.1943 79.5062 42.4764 77.5992 42.4764 75.2469C42.4764 72.8946 40.1943 70.9877 37.3792 70.9877C34.5641 70.9877 32.282 72.8946 32.282 75.2469C32.282 77.5992 34.5641 79.5062 37.3792 79.5062Z" fill="#048D64"/>
<path opacity="0.4" d="M37.3792 61.7593C40.1943 61.7593 42.4764 59.8523 42.4764 57.5C42.4764 55.1477 40.1943 53.2408 37.3792 53.2408C34.5641 53.2408 32.282 55.1477 32.282 57.5C32.282 59.8523 34.5641 61.7593 37.3792 61.7593Z" fill="#048D64"/>
<path opacity="0.4" d="M37.3792 44.0123C40.1943 44.0123 42.4764 42.1054 42.4764 39.7531C42.4764 37.4008 40.1943 35.4938 37.3792 35.4938C34.5641 35.4938 32.282 37.4008 32.282 39.7531C32.282 42.1054 34.5641 44.0123 37.3792 44.0123Z" fill="#048D64"/>
<path opacity="0.4" d="M37.3792 26.2654C40.1943 26.2654 42.4764 24.3585 42.4764 22.0062C42.4764 19.6538 40.1943 17.7469 37.3792 17.7469C34.5641 17.7469 32.282 19.6538 32.282 22.0062C32.282 24.3585 34.5641 26.2654 37.3792 26.2654Z" fill="#048D64"/>
<path opacity="0.4" d="M37.3792 8.51852C40.1943 8.51852 42.4764 6.61158 42.4764 4.25926C42.4764 1.90694 40.1943 0 37.3792 0C34.5641 0 32.282 1.90694 32.282 4.25926C32.282 6.61158 34.5641 8.51852 37.3792 8.51852Z" fill="#048D64"/>
<path opacity="0.4" d="M53.5203 115C56.3354 115 58.6175 113.093 58.6175 110.741C58.6175 108.388 56.3354 106.481 53.5203 106.481C50.7052 106.481 48.4231 108.388 48.4231 110.741C48.4231 113.093 50.7052 115 53.5203 115Z" fill="#048D64"/>
<path opacity="0.4" d="M53.5203 97.2531C56.3354 97.2531 58.6175 95.3462 58.6175 92.9939C58.6175 90.6415 56.3354 88.7346 53.5203 88.7346C50.7052 88.7346 48.4231 90.6415 48.4231 92.9939C48.4231 95.3462 50.7052 97.2531 53.5203 97.2531Z" fill="#048D64"/>
<path opacity="0.4" d="M69.6614 115C72.4765 115 74.7585 113.093 74.7585 110.741C74.7585 108.388 72.4765 106.481 69.6614 106.481C66.8463 106.481 64.5642 108.388 64.5642 110.741C64.5642 113.093 66.8463 115 69.6614 115Z" fill="#048D64"/>
<path opacity="0.4" d="M69.6614 97.2531C72.4765 97.2531 74.7585 95.3462 74.7585 92.9939C74.7585 90.6415 72.4765 88.7346 69.6614 88.7346C66.8463 88.7346 64.5642 90.6415 64.5642 92.9939C64.5642 95.3462 66.8463 97.2531 69.6614 97.2531Z" fill="#048D64"/>
<path opacity="0.4" d="M69.6614 79.5062C72.4765 79.5062 74.7585 77.5992 74.7585 75.2469C74.7585 72.8946 72.4765 70.9877 69.6614 70.9877C66.8463 70.9877 64.5642 72.8946 64.5642 75.2469C64.5642 77.5992 66.8463 79.5062 69.6614 79.5062Z" fill="#048D64"/>
<path opacity="0.4" d="M53.5203 79.5062C56.3354 79.5062 58.6175 77.5992 58.6175 75.2469C58.6175 72.8946 56.3354 70.9877 53.5203 70.9877C50.7052 70.9877 48.4231 72.8946 48.4231 75.2469C48.4231 77.5992 50.7052 79.5062 53.5203 79.5062Z" fill="#048D64"/>
<path opacity="0.4" d="M53.5203 61.7593C56.3354 61.7593 58.6175 59.8523 58.6175 57.5C58.6175 55.1477 56.3354 53.2408 53.5203 53.2408C50.7052 53.2408 48.4231 55.1477 48.4231 57.5C48.4231 59.8523 50.7052 61.7593 53.5203 61.7593Z" fill="#048D64"/>
<path opacity="0.4" d="M53.5203 44.0123C56.3354 44.0123 58.6175 42.1054 58.6175 39.7531C58.6175 37.4008 56.3354 35.4938 53.5203 35.4938C50.7052 35.4938 48.4231 37.4008 48.4231 39.7531C48.4231 42.1054 50.7052 44.0123 53.5203 44.0123Z" fill="#048D64"/>
<path opacity="0.4" d="M53.5203 26.2654C56.3354 26.2654 58.6175 24.3585 58.6175 22.0062C58.6175 19.6538 56.3354 17.7469 53.5203 17.7469C50.7052 17.7469 48.4231 19.6538 48.4231 22.0062C48.4231 24.3585 50.7052 26.2654 53.5203 26.2654Z" fill="#048D64"/>
<path opacity="0.4" d="M53.5203 8.51852C56.3354 8.51852 58.6175 6.61158 58.6175 4.25926C58.6175 1.90694 56.3354 0 53.5203 0C50.7052 0 48.4231 1.90694 48.4231 4.25926C48.4231 6.61158 50.7052 8.51852 53.5203 8.51852Z" fill="#048D64"/>
</g>
</svg>
