<svg width="81" height="81" viewBox="0 0 81 81" fill="none" xmlns="http://www.w3.org/2000/svg">
<g clip-path="url(#clip0)">
<path d="M32.121 63.8675C14.661 63.8675 0.454346 49.6608 0.454346 32.2008C0.454346 14.7408 14.661 0.534119 32.121 0.534119C49.581 0.534119 63.7877 14.7408 63.7877 32.2008C63.7877 49.6608 49.581 63.8675 32.121 63.8675ZM32.121 3.86745C16.4977 3.86745 3.78768 16.5775 3.78768 32.2008C3.78768 47.8241 16.4977 60.5341 32.121 60.5341C47.7444 60.5341 60.4544 47.8241 60.4544 32.2008C60.4544 16.5775 47.7444 3.86745 32.121 3.86745Z" fill="#048D64"/>
<path d="M78.7877 80.5341C78.3611 80.5341 77.9344 80.3708 77.6077 80.0475L52.9877 55.4275C52.3377 54.7775 52.3377 53.7208 52.9877 53.0708C53.6377 52.4208 54.6944 52.4208 55.3444 53.0708L79.9644 77.6908C80.6144 78.3408 80.6144 79.3975 79.9644 80.0475C79.6411 80.3708 79.2144 80.5341 78.7877 80.5341Z" fill="#048D64"/>
<path d="M32.121 30.5341C28.4443 30.5341 25.4543 27.5441 25.4543 23.8674C25.4543 20.1908 28.4443 17.2008 32.121 17.2008C35.7977 17.2008 38.7877 20.1908 38.7877 23.8674C38.7877 27.5441 35.7977 30.5341 32.121 30.5341ZM32.121 20.5341C30.281 20.5341 28.7877 22.0308 28.7877 23.8674C28.7877 25.7041 30.281 27.2008 32.121 27.2008C33.961 27.2008 35.4543 25.7041 35.4543 23.8674C35.4543 22.0308 33.961 20.5341 32.121 20.5341Z" fill="#048D64"/>
<path d="M43.7876 47.2008C42.8676 47.2008 42.1209 46.4541 42.1209 45.5341V42.2008C42.1209 39.4441 39.8776 37.2008 37.1209 37.2008H27.1209C24.3643 37.2008 22.1209 39.4441 22.1209 42.2008V45.5341C22.1209 46.4541 21.3743 47.2008 20.4543 47.2008C19.5343 47.2008 18.7876 46.4541 18.7876 45.5341V42.2008C18.7876 37.6074 22.5243 33.8674 27.1209 33.8674H37.1209C41.7176 33.8674 45.4543 37.6074 45.4543 42.2008V45.5341C45.4543 46.4541 44.7076 47.2008 43.7876 47.2008Z" fill="#048D64"/>
</g>
<defs>
<clipPath id="clip0">
<rect width="80" height="80" fill="white" transform="translate(0.454346 0.534119)"/>
</clipPath>
</defs>
</svg>
